<svg xmlns="http://www.w3.org/2000/svg" width="60px" height="60px" viewBox="0 0 512 512"><path d="M 441 23.5 C 418.944 23.5 401 41.444 401 63.5 C 401 85.556 418.944 103.5 441 103.5 C 463.056 103.5 481 85.556 481 63.5 C 481 41.444 463.056 23.5 441 23.5 z M 256 28.5 C 194.564 28.5 136.80723 52.424234 93.365234 95.865234 C 49.924234 139.30723 26 197.065 26 258.5 C 26 261.262 28.238 263.5 31 263.5 C 33.762 263.5 36 261.262 36 258.5 C 36 137.191 134.691 38.5 256 38.5 C 258.762 38.5 261 36.261 261 33.5 C 261 30.739 258.762 28.5 256 28.5 z M 93.5 33.5 A 7.5 7.5 0 0 0 93.5 48.5 A 7.5 7.5 0 0 0 93.5 33.5 z M 348.5 33.5 A 7.5 7.5 0 0 0 348.5 48.5 A 7.5 7.5 0 0 0 348.5 33.5 z M 441 33.5 C 457.542 33.5 471 46.958 471 63.5 C 471 80.042 457.542 93.5 441 93.5 C 424.458 93.5 411 80.042 411 63.5 C 411 46.958 424.458 33.5 441 33.5 z M 256 63.5 C 148.477 63.5 61 150.977 61 258.5 C 61 366.023 148.477 453.5 256 453.5 C 363.523 453.5 451 366.023 451 258.5 C 451 150.977 363.523 63.5 256 63.5 z M 256 73.5 C 358.01 73.5 441 156.491 441 258.5 C 441 360.51 358.01 443.5 256 443.5 C 153.99 443.5 71 360.51 71 258.5 C 71 156.491 153.99 73.5 256 73.5 z M 216 133.5 C 213.238 133.5 211 135.739 211 138.5 L 211 213.5 L 136 213.5 C 133.238 213.5 131 215.739 131 218.5 L 131 298.5 C 131 301.262 133.238 303.5 136 303.5 L 211 303.5 L 211 378.5 C 211 381.262 213.238 383.5 216 383.5 L 296 383.5 C 298.762 383.5 301 381.262 301 378.5 L 301 303.5 L 376 303.5 C 378.762 303.5 381 301.262 381 298.5 L 381 218.5 C 381 215.739 378.762 213.5 376 213.5 L 301 213.5 L 301 138.5 C 301 135.739 298.762 133.5 296 133.5 L 216 133.5 z M 221 143.5 L 291 143.5 L 291 218.5 C 291 221.261 293.238 223.5 296 223.5 L 371 223.5 L 371 293.5 L 296 293.5 C 293.238 293.5 291 295.738 291 298.5 L 291 373.5 L 221 373.5 L 221 298.5 C 221 295.738 218.762 293.5 216 293.5 L 141 293.5 L 141 223.5 L 216 223.5 C 218.762 223.5 221 221.261 221 218.5 L 221 143.5 z M 458.5 158.5 A 7.5 7.5 0 0 0 458.5 173.5 A 7.5 7.5 0 0 0 458.5 158.5 z M 481 253.5 C 478.238 253.5 476 255.738 476 258.5 C 476 379.809 377.309 478.5 256 478.5 C 253.238 478.5 251 480.738 251 483.5 C 251 486.262 253.238 488.5 256 488.5 C 317.435 488.5 375.19277 464.57577 418.63477 421.13477 C 462.07677 377.69377 486 319.935 486 258.5 C 486 255.738 483.762 253.5 481 253.5 z M 43.5 346 A 7.5 7.5 0 0 0 43.5 361 A 7.5 7.5 0 0 0 43.5 346 z M 71 408.5 C 54.458 408.5 41 421.958 41 438.5 C 41 455.042 54.458 468.5 71 468.5 C 87.542 468.5 101 455.042 101 438.5 C 101 421.958 87.542 408.5 71 408.5 z M 71 418.5 C 82.028 418.5 91 427.472 91 438.5 C 91 449.528 82.028 458.5 71 458.5 C 59.972 458.5 51 449.528 51 438.5 C 51 427.472 59.972 418.5 71 418.5 z M 453.5 428.5 A 7.5 7.5 0 0 0 453.5 443.5 A 7.5 7.5 0 0 0 453.5 428.5 z M 178.5 453.5 A 7.5 7.5 0 0 0 178.5 468.5 A 7.5 7.5 0 0 0 178.5 453.5 z"></path></svg>