
<svg xmlns="http://www.w3.org/2000/svg" width="60px" height="60px" viewBox="0 0 64 64"><path d="M 22 0 C 15.318 0 11 5.1 11 13 L 13 13 C 13 6.215 16.449 2 22 2 C 27.265 2 27.959813 3.166125 30.882812 8.078125 L 31.140625 8.5117188 A 1.04 1.04 0 0 0 32.859375 8.5117188 L 33.115234 8.0800781 C 36.039234 3.1670781 36.735 2 42 2 C 47.552 2 51 6.215 51 13 C 51 28.657 33.237859 35.943 32.005859 36 C 30.488859 35.931 17.29175 30.051031 13.84375 18.707031 L 11.931641 19.289062 C 15.638641 31.489062 29.66 38 32 38 C 34.339 38 53 29.656 53 13 C 53 5.1 48.683 0 42 0 C 36.047 5.9211895e-16 34.566 1.7858281 32 6.0488281 C 29.434 1.7858281 27.954 0 22 0 z M 29 11 A 1 1 0 0 0 28 12 L 28 16 L 24 16 A 1 1 0 0 0 23 17 L 23 23 A 1 1 0 0 0 24 24 L 28 24 L 28 28 A 1 1 0 0 0 29 29 L 35 29 A 1 1 0 0 0 36 28 L 36 24 L 40 24 A 1 1 0 0 0 41 23 L 41 17 A 1 1 0 0 0 40 16 L 36 16 L 36 12 A 1 1 0 0 0 35 11 L 29 11 z M 30 13 L 34 13 L 34 17 A 1 1 0 0 0 35 18 L 39 18 L 39 22 L 35 22 A 1 1 0 0 0 34 23 L 34 27 L 30 27 L 30 23 A 1 1 0 0 0 29 22 L 25 22 L 25 18 L 29 18 A 1 1 0 0 0 30 17 L 30 13 z M 13.091797 14.902344 L 11.099609 15.09375 C 11.166609 15.79375 11.26925 16.502359 11.40625 17.193359 L 13.369141 16.802734 A 19.112 19.112 0 0 1 13.091797 14.902344 z M 8.3457031 34.005859 A 3.25 3.25 0 0 0 5 37.253906 L 5 37.353516 A 3.245 3.245 0 0 0 5.4941406 39.076172 L 15.152344 54.529297 A 1 1 0 0 0 15.400391 54.800781 L 19 57.5 L 19 59 L 19 63 L 21 63 L 21 60 L 29 60 L 29 63 L 31 63 L 31 59 L 31 57.300781 L 32.001953 55.800781 L 33 57.300781 L 33 59 L 33 63 L 35 63 L 35 60 L 43 60 L 43 63 L 45 63 L 45 59 L 45 57.5 L 48.599609 54.800781 A 1 1 0 0 0 48.847656 54.529297 L 58.507812 39.072266 A 3.253 3.253 0 0 0 59 37.349609 L 59 37.25 A 3.25 3.25 0 0 0 53.792969 34.660156 L 44.955078 41.421875 A 2.971 2.971 0 0 0 40.345703 39.533203 L 33.144531 44.544922 A 5 5 0 0 0 32.001953 45.658203 A 5 5 0 0 0 30.855469 44.544922 L 23.654297 39.533203 A 2.963 2.963 0 0 0 19.498047 40.316406 A 2.988 2.988 0 0 0 19.044922 41.421875 L 10.199219 34.654297 A 3.25 3.25 0 0 0 8.3457031 34.005859 z M 8.171875 36 A 1.25 1.25 0 0 1 8.9941406 36.244141 L 25.394531 48.794922 A 1 1 0 0 0 26.654297 47.242188 L 21.361328 42.691406 A 0.94 0.94 0 0 1 21.160156 41.425781 A 0.954 0.954 0 0 1 21.783203 41.015625 A 0.965 0.965 0 0 1 22.513672 41.171875 L 29.714844 46.181641 A 3 3 0 0 1 31 48.644531 L 31 52.789062 A 2.989 2.989 0 0 1 30.5 54.453125 L 29.167969 56.445312 A 1.006 1.006 0 0 0 29 57 L 29 58 L 21 58 L 21 57 A 1 1 0 0 0 20.599609 56.199219 L 16.748047 53.308594 L 7.1894531 38.013672 A 1.258 1.258 0 0 1 7 37.349609 L 7 37.25 A 1.25 1.25 0 0 1 8.171875 36 z M 55.712891 36.003906 A 1.25 1.25 0 0 1 57 37.253906 L 57 37.353516 A 1.258 1.258 0 0 1 56.810547 38.017578 L 47.251953 53.3125 L 43.400391 56.199219 A 1 1 0 0 0 43 57 L 43 58 L 35 58 L 35 57 A 1.006 1.006 0 0 0 34.828125 56.445312 L 33.5 54.453125 A 2.989 2.989 0 0 1 33 52.789062 L 33 48.644531 A 3 3 0 0 1 34.28125 46.183594 L 41.482422 41.171875 A 0.966 0.966 0 0 1 42.212891 41.015625 A 0.951 0.951 0 0 1 42.611328 42.716797 L 37.347656 47.242188 A 1 1 0 0 0 38.607422 48.794922 L 55 36.253906 A 1.25 1.25 0 0 1 55.712891 36.003906 z"></path></svg>