
<svg xmlns="http://www.w3.org/2000/svg" width="60px" height="60px" viewBox="0 0 520 520"><path d="M 255 30 C 241.215 30 230 41.215 230 55 C 230 68.785 241.215 80 255 80 C 268.785 80 280 68.785 280 55 C 280 41.215 268.785 30 255 30 z M 60 40 A 10 10 0 0 0 60 60 A 10 10 0 0 0 60 40 z M 470 40 A 10 10 0 0 0 470 60 A 10 10 0 0 0 470 40 z M 255 50 C 257.757 50 260 52.243 260 55 C 260 57.757 257.757 60 255 60 C 252.243 60 250 57.757 250 55 C 250 52.243 252.243 50 255 50 z M 150.20703 65.414062 C 84.188031 65.414062 30.478516 119.12453 30.478516 185.14453 C 30.478516 240.96153 56.557203 279.915 99.908203 320 L 60 320 C 54.477 320 50 324.478 50 330 L 50 380 C 50 385.522 54.477 390 60 390 L 120 390 L 120 450 C 120 455.522 124.477 460 130 460 L 180 460 C 185.523 460 190 455.522 190 450 L 190 394.87109 C 208.308 410.09609 230.56923 429.35925 252.86523 451.65625 C 256.77123 455.56125 263.10081 455.56025 267.00781 451.65625 C 376.84581 341.81825 489.52344 300.72553 489.52344 185.14453 C 489.52344 119.12453 435.75502 65.414062 369.66602 65.414062 C 314.16702 65.414062 284.8535 92.119078 259.9375 136.33008 C 235.0205 92.119078 205.70603 65.414062 150.20703 65.414062 z M 150.20508 85.412109 C 196.86008 85.412109 222.29219 104.78559 250.99219 162.18359 C 254.66919 169.53759 265.19786 169.54659 268.88086 162.18359 C 297.57986 104.78559 323.01202 85.412109 369.66602 85.412109 C 424.72802 85.412109 469.52344 130.15158 469.52344 185.14258 C 469.52344 286.89958 367.6455 325.64711 259.9375 430.53711 C 244.3775 415.38711 229.07458 401.778 215.26758 390 L 250 390 C 255.523 390 260 385.522 260 380 L 260 330 C 260 324.478 255.523 320 250 320 L 190 320 L 190 260 C 190 254.477 185.523 250 180 250 L 130 250 C 124.477 250 120 254.477 120 260 L 120 311.23828 C 75.762 271.84228 50.476562 236.80058 50.476562 185.14258 C 50.476562 130.15158 95.214078 85.412109 150.20508 85.412109 z M 396.91992 120.00195 C 393.71151 119.8938 390.50797 121.3293 388.48047 124.12305 C 385.23647 128.59205 386.22922 134.8478 390.69922 138.0918 C 408.74722 151.1928 419.52344 172.29683 419.52344 194.54883 C 419.52344 248.96683 378.06612 278.17242 323.70312 322.23242 C 319.41312 325.71042 318.75347 332.00783 322.23047 336.29883 C 325.70347 340.58283 331.99987 341.25053 336.29688 337.76953 C 392.02287 292.59753 439.52344 259.20083 439.52344 194.54883 C 439.52344 165.91183 425.66327 138.7553 402.44727 121.9043 C 400.77139 120.68742 398.84497 120.06685 396.91992 120.00195 z M 139.99219 130 C 135.93496 130.00173 132.24203 132.46766 130.71484 136.28516 L 113.22852 180 L 90 180 C 84.477 180 80 184.477 80 190 C 80 195.523 84.477 200 90 200 L 120 200 C 124.089 200 127.76616 197.51184 129.28516 193.71484 L 137.26172 173.77344 L 150.23828 232.16992 C 151.25828 236.75792 155.32791 240 160.00391 240 C 163.75391 240 167.23731 237.88866 168.94531 234.47266 L 186.17969 200 L 240 200 C 245.523 200 250 195.523 250 190 C 250 184.477 245.523 180 240 180 L 180 180 C 176.212 180 172.75064 182.13934 171.05664 185.52734 L 163.65234 200.33594 L 149.76172 137.83008 C 148.81072 133.54908 145.18059 130.3882 140.80859 130.0332 C 140.53541 130.01108 140.26267 129.99988 139.99219 130 z M 270 180 A 10 10 0 0 0 270 200 A 10 10 0 0 0 270 180 z M 140 270 L 170 270 L 170 330 C 170 335.522 174.477 340 180 340 L 240 340 L 240 370 L 180 370 C 174.477 370 170 374.478 170 380 L 170 440 L 140 440 L 140 380 C 140 374.478 135.523 370 130 370 L 70 370 L 70 340 L 130 340 C 135.523 340 140 335.522 140 330 L 140 270 z M 40 290 A 10 10 0 0 0 40 310 A 10 10 0 0 0 40 290 z M 310 340 A 10 10 0 0 0 310 360 A 10 10 0 0 0 310 340 z M 470 340 A 10 10 0 0 0 470 360 A 10 10 0 0 0 470 340 z M 410 360 A 10 10 0 0 0 410 380 A 10 10 0 0 0 410 360 z M 440 400 C 423.458 400 410 413.458 410 430 C 410 446.542 423.458 460 440 460 C 456.542 460 470 446.542 470 430 C 470 413.458 456.542 400 440 400 z M 65 420 C 51.215 420 40 431.215 40 445 C 40 458.785 51.215 470 65 470 C 78.785 470 90 458.785 90 445 C 90 431.215 78.785 420 65 420 z M 440 420 C 445.514 420 450 424.486 450 430 C 450 435.514 445.514 440 440 440 C 434.486 440 430 435.514 430 430 C 430 424.486 434.486 420 440 420 z M 65 440 C 67.757 440 70 442.243 70 445 C 70 447.757 67.757 450 65 450 C 62.243 450 60 447.757 60 445 C 60 442.243 62.243 440 65 440 z M 340 450 A 10 10 0 0 0 340 470 A 10 10 0 0 0 340 450 z M 210 460 A 10 10 0 0 0 210 480 A 10 10 0 0 0 210 460 z"></path></svg>