
<svg xmlns="http://www.w3.org/2000/svg" width="60px" height="60px" viewBox="0 0 512 512"><path d="M 150.20508 30 A 30.179 30.179 0 0 0 120 60 L 120 131.63281 A 8.464 8.464 0 0 0 128.16406 140 L 135 140 L 135 146.78906 C 121 150.28906 110.23242 162.91313 110.23242 177.45312 C 110.23242 192.30912 121.5438 205.16008 136.0918 208.33008 A 125.63 125.63 0 0 0 187 294.15234 L 187 321 L 140.16797 321 C 93.280969 321 55 359.05536 55 405.94336 L 55 474.04297 A 8.081 8.081 0 0 0 63.134766 482 L 448.86523 482 A 8.081 8.081 0 0 0 457 474.04297 L 457 405.94141 C 457 359.05441 418.71808 321 371.83008 321 L 324 321 L 324 294.36523 A 131.767 131.767 0 0 0 341.36133 279.60938 A 123.573 123.573 0 0 0 375.79883 208.30859 A 31.8 31.8 0 0 0 400.63477 177.45312 C 400.63477 162.72213 390 150.31159 377 146.80859 L 377 140 L 381.63281 140 A 8.644 8.644 0 0 0 390 131.63086 L 390 60 C 390 43.435 376.1558 30 359.5918 30 L 150.20508 30 z M 150.20508 46 L 359.5918 46 C 367.3338 46 374 52.256 374 60 L 374 124 L 136 124 L 136 60 A 14.161 14.161 0 0 1 150.20508 46 z M 254.76562 62.003906 A 8 8 0 0 0 247 70 L 247 77 L 242 77 A 8 8 0 0 0 242 93 L 247 93 L 247 97 A 8 8 0 0 0 263 97 L 263 93 L 269 93 A 8 8 0 0 0 269 77 L 263 77 L 263 70 A 8 8 0 0 0 254.76562 62.003906 z M 151 140 L 361 140 L 361 186.84766 L 274.91406 212.01562 A 67.4 67.4 0 0 1 237.14062 212.01562 L 151 186.84766 L 151 140 z M 185.98828 158.80273 A 8 8 0 0 0 178.22266 166.80078 A 27.278 27.278 0 0 0 205.47461 194.04883 A 27.278 27.278 0 0 0 232.72266 166.80078 A 8 8 0 0 0 216.72266 166.80078 A 11.25 11.25 0 0 1 194.22266 166.80078 A 8 8 0 0 0 185.98828 158.80273 z M 282.22656 158.80273 A 8 8 0 0 0 274.46094 166.80078 A 27.278 27.278 0 0 0 301.71484 194.04883 A 27.278 27.278 0 0 0 328.96094 166.80078 A 8 8 0 0 0 312.96094 166.80078 A 11.25 11.25 0 0 1 290.46094 166.80078 A 8 8 0 0 0 282.22656 158.80273 z M 135 163.78516 L 135 191.12109 C 130 188.39909 126.12305 183.16812 126.12305 177.45312 C 126.12305 171.73712 130 166.50616 135 163.78516 z M 377 163.96289 C 381 166.67589 384.77344 171.69912 384.77344 177.45312 C 384.77344 183.20612 381 188.23131 377 190.94531 L 377 163.96289 z M 151.72852 203.66797 L 232.69922 227.36719 A 82.774 82.774 0 0 0 279.30078 227.36719 L 360.27148 203.66797 A 107.531 107.531 0 0 1 330.01562 268.44727 C 310.09963 288.90027 283.815 300.16211 256 300.16211 C 228.185 300.16211 201.90037 288.90027 181.98438 268.44727 A 107.534 107.534 0 0 1 151.72852 203.66797 z M 203 303.7793 C 220 311.8783 237.18839 316.16211 255.65039 316.16211 A 117.256 117.256 0 0 0 308 303.93164 L 308 324.4668 L 254.15039 357.91797 L 203 324.58008 L 203 303.7793 z M 140.16797 337 L 193.08203 337 L 246 371.73438 L 246 466 L 71 466 L 71 405.94336 A 69.15 69.15 0 0 1 140.16797 337 z M 318.52148 337 L 371.83008 337 A 69.151 69.151 0 0 1 441 405.94336 L 441 466 L 262 466 L 262 371.84766 L 318.52148 337 z"></path></svg>