
<svg xmlns="http://www.w3.org/2000/svg" width="60px" height="60px" viewBox="0 0 64 64"><path d="M 33 2 C 30.243 2 28 4.243 28 7 L 28 12 L 23 12 C 20.243 12 18 14.243 18 17 L 18 47.585938 L 17.585938 48 L 12 48 L 12 47 C 12 46.447 11.552 46 11 46 L 3 46 C 2.448 46 2 46.447 2 47 L 2 61 C 2 61.553 2.448 62 3 62 L 11 62 C 11.552 62 12 61.553 12 61 L 45 61 C 45.172 61 45.341234 60.956094 45.490234 60.871094 L 59.882812 52.775391 C 61.188812 52.040391 62 50.653297 62 49.154297 C 62 47.655297 61.194 46.350141 60 45.619141 L 60 17 C 60 14.243 57.757 12 55 12 L 50 12 L 50 7 C 50 4.243 47.757 2 45 2 L 33 2 z M 33 4 L 45 4 C 46.654 4 48 5.346 48 7 L 48 12 L 46 12 L 46 7 C 46 6.447 45.552 6 45 6 L 33 6 C 32.448 6 32 6.447 32 7 L 32 12 L 30 12 L 30 7 C 30 5.346 31.346 4 33 4 z M 34 8 L 44 8 L 44 12 L 34 12 L 34 8 z M 23 14 L 55 14 C 56.654 14 58 15.346 58 17 L 58 45.015625 C 57.947 45.013625 57.898703 45 57.845703 45 L 57.693359 45 C 57.095359 45 56.492172 45.132813 55.951172 45.382812 L 43.779297 51 L 39.238281 51 C 39.718281 50.284 40 49.425 40 48.5 C 40 46.019 37.981 44 35.5 44 L 22 44 C 21.735 44 21.479969 44.104969 21.292969 44.292969 L 20 45.585938 L 20 17 C 20 15.346 21.346 14 23 14 z M 39 18 C 32.383 18 27 23.383 27 30 C 27 36.617 32.383 42 39 42 C 45.617 42 51 36.617 51 30 C 51 23.383 45.617 18 39 18 z M 39 20 C 44.514 20 49 24.486 49 30 C 49 35.514 44.514 40 39 40 C 33.486 40 29 35.514 29 30 C 29 24.486 33.486 20 39 20 z M 37 23 C 36.448 23 36 23.447 36 24 L 36 27 L 33 27 C 32.448 27 32 27.447 32 28 L 32 32 C 32 32.553 32.448 33 33 33 L 36 33 L 36 36 C 36 36.553 36.448 37 37 37 L 41 37 C 41.552 37 42 36.553 42 36 L 42 33 L 45 33 C 45.552 33 46 32.553 46 32 L 46 28 C 46 27.447 45.552 27 45 27 L 42 27 L 42 24 C 42 23.447 41.552 23 41 23 L 37 23 z M 38 25 L 40 25 L 40 28 C 40 28.553 40.448 29 41 29 L 44 29 L 44 31 L 41 31 C 40.448 31 40 31.447 40 32 L 40 35 L 38 35 L 38 32 C 38 31.447 37.552 31 37 31 L 34 31 L 34 29 L 37 29 C 37.552 29 38 28.553 38 28 L 38 25 z M 22.414062 46 L 35.5 46 C 36.878 46 38 47.121 38 48.5 C 38 49.879 36.878 51 35.5 51 L 27 51 L 27 53 L 35.5 53 L 44 53 C 44.145 53 44.288922 52.969203 44.419922 52.908203 L 56.791016 47.197266 C 57.070016 47.068266 57.382359 47 57.693359 47 L 57.845703 47 C 59.033703 47 60 47.966297 60 49.154297 C 60 49.932297 59.578391 50.651203 58.900391 51.033203 L 44.738281 59 L 12 59 L 12 50 L 18 50 C 18.265 50 18.520031 49.895031 18.707031 49.707031 L 22.414062 46 z M 4 48 L 10 48 L 10 60 L 4 60 L 4 48 z"></path></svg>